<?xml version="1.0" encoding="UTF-8" standalone="no"?>
<svg xmlns="http://www.w3.org/2000/svg" version="1.1" height="48" width="193" viewBox="0 0 193 48">
    <path style="fill:#FFFFFF" d="M 162.99219 2.6191406 L 162.99219 7.4375 C 162.68473 6.9074067 162.29405 6.5161588 161.82227 6.2617188 C 161.35579 6.0019721 160.79403 5.8710938 160.13672 5.8710938 C 159.06063 5.8710938 158.18437 6.3014096 157.50586 7.1601562 C 156.83265 8.018903 156.49609 9.147435 156.49609 10.546875 C 156.49609 11.946315 156.83265 13.074847 157.50586 13.933594 C 158.18437 14.79234 159.06063 15.222656 160.13672 15.222656 C 160.79403 15.222656 161.35579 15.094284 161.82227 14.839844 C 162.29405 14.580097 162.68473 14.186337 162.99219 13.65625 L 162.99219 14.992188 L 164.45508 14.992188 L 164.45508 2.6191406 L 162.99219 2.6191406 z M 171.41211 2.6191406 L 171.41211 14.992188 L 172.88281 14.992188 L 172.88281 13.65625 C 173.19026 14.186337 173.57844 14.580097 174.04492 14.839844 C 174.51671 15.094284 175.07846 15.222656 175.73047 15.222656 C 176.81186 15.222656 177.68811 14.79234 178.36133 13.933594 C 179.03985 13.074847 179.38086 11.946315 179.38086 10.546875 C 179.38086 9.147435 179.03985 8.0189029 178.36133 7.1601562 C 177.68811 6.3014097 176.81186 5.8710938 175.73047 5.8710938 C 175.07846 5.8710937 174.51671 6.001972 174.04492 6.2617188 C 173.57844 6.5161587 173.19026 6.9074067 172.88281 7.4375 L 172.88281 2.6191406 L 171.41211 2.6191406 z M 101.8125 3.1210938 L 101.8125 14.992188 L 103.41797 14.992188 L 103.41797 10.220703 L 105.4375 10.220703 C 106.76803 10.220703 107.77266 9.9212723 108.45117 9.3222656 C 109.13499 8.7232656 109.47852 7.8375156 109.47852 6.6660156 C 109.47852 5.5051156 109.13499 4.6263503 108.45117 4.0273438 C 107.77266 3.4230438 106.76803 3.1210937 105.4375 3.1210938 L 101.8125 3.1210938 z M 103.41797 4.4394531 L 105.4375 4.4394531 C 106.18493 4.4394531 106.76371 4.6345177 107.17188 5.0214844 C 107.58003 5.4084444 107.7832 5.955689 107.7832 6.6660156 C 107.7832 7.3816356 107.58004 7.9333458 107.17188 8.3203125 C 106.76369 8.7072792 106.18493 8.9003906 105.4375 8.9003906 L 103.41797 8.9003906 L 103.41797 4.4394531 z M 113.86328 5.8710938 C 112.58576 5.8710937 111.58365 6.2843881 110.85742 7.1113281 C 110.1365 7.9382748 109.77539 9.0838283 109.77539 10.546875 C 109.77539 12.004628 110.1365 13.150182 110.85742 13.982422 C 111.58365 14.809362 112.58576 15.222656 113.86328 15.222656 C 115.1355 15.222656 116.1351 14.809362 116.86133 13.982422 C 117.58755 13.150182 117.94922 12.004628 117.94922 10.546875 C 117.94922 9.0838283 117.58755 7.9382748 116.86133 7.1113281 C 116.1351 6.2843881 115.1355 5.8710938 113.86328 5.8710938 z M 136.23828 5.8710938 C 134.90245 5.8710938 133.84062 6.3014096 133.05078 7.1601562 C 132.26625 8.0136029 131.87305 9.1691999 131.87305 10.626953 C 131.87305 12.036993 132.28634 13.155482 133.11328 13.982422 C 133.94552 14.809362 135.07154 15.222656 136.49219 15.222656 C 137.05938 15.222656 137.61863 15.163495 138.16992 15.046875 C 138.72122 14.930255 139.26037 14.761696 139.78516 14.539062 L 139.78516 13.154297 C 139.26567 13.429944 138.74103 13.637564 138.21094 13.775391 C 137.68615 13.913211 137.14197 13.982422 136.58008 13.982422 C 135.61001 13.982422 134.85263 13.720099 134.30664 13.195312 C 133.76595 12.66522 133.464 11.895845 133.40039 10.888672 L 140.12695 10.888672 L 140.12695 10.173828 C 140.12695 8.8486016 139.77786 7.8018365 139.07812 7.0332031 C 138.38371 6.2592698 137.43629 5.8710937 136.23828 5.8710938 z M 146.34961 5.8710938 C 145.64459 5.8710938 145.04572 6.0044846 144.55273 6.2695312 C 144.05975 6.5292779 143.65902 6.9300098 143.35156 7.4707031 L 143.35156 6.0859375 L 141.88086 6.0859375 L 141.88086 14.992188 L 143.35156 14.992188 L 143.35156 10.300781 C 143.35156 9.2936081 143.57175 8.5217215 144.01172 7.9863281 C 144.457 7.4456348 145.09298 7.1757812 145.91992 7.1757812 C 146.15316 7.1757812 146.36581 7.2003135 146.55664 7.2480469 C 146.75277 7.2904535 146.93138 7.3577117 147.0957 7.453125 L 147.08789 5.9511719 C 146.93946 5.9246385 146.80551 5.9051313 146.68359 5.8945312 C 146.56167 5.8785979 146.45033 5.8710938 146.34961 5.8710938 z M 151.43359 5.8710938 C 150.09777 5.8710938 149.03593 6.3014096 148.24609 7.1601562 C 147.46156 8.0136029 147.06836 9.1691999 147.06836 10.626953 C 147.06836 12.036993 147.48165 13.155482 148.30859 13.982422 C 149.14083 14.809362 150.26881 15.222656 151.68945 15.222656 C 152.25665 15.222656 152.81589 15.163495 153.36719 15.046875 C 153.91848 14.930255 154.45568 14.761696 154.98047 14.539062 L 154.98047 13.154297 C 154.46098 13.429944 153.93634 13.637564 153.40625 13.775391 C 152.88146 13.913211 152.33729 13.982422 151.77539 13.982422 C 150.80532 13.982422 150.04795 13.720099 149.50195 13.195312 C 148.96125 12.66522 148.6593 11.895845 148.5957 10.888672 L 155.32227 10.888672 L 155.32227 10.173828 C 155.32227 8.8486016 154.97316 7.8018365 154.27344 7.0332031 C 153.57902 6.2592698 152.6316 5.8710937 151.43359 5.8710938 z M 118.92383 6.0859375 L 121.25391 14.992188 L 122.98047 14.992188 L 124.9043 7.6933594 L 126.82031 14.992188 L 128.54492 14.992188 L 130.875 6.0859375 L 129.41211 6.0859375 L 127.5918 13.035156 L 125.76172 6.0859375 L 124.03711 6.0859375 L 122.2168 13.035156 L 120.38672 6.0859375 L 118.92383 6.0859375 z M 180.16406 6.0859375 L 183.76562 14.849609 L 183.50195 15.515625 C 183.23161 16.225952 182.98631 16.678307 182.76367 16.869141 C 182.54103 17.059974 182.22709 17.154297 181.82422 17.154297 L 180.9668 17.154297 L 180.9668 18.378906 L 182.13477 18.378906 C 182.79208 18.378906 183.31672 18.217891 183.70898 17.894531 C 184.10126 17.571178 184.5045 16.878539 184.91797 15.818359 L 188.83008 6.0859375 L 187.2793 6.0859375 L 184.49609 13.050781 L 181.71289 6.0859375 L 180.16406 6.0859375 z M 160.49414 7.0957031 C 161.26807 7.0957031 161.87895 7.4026715 162.32422 8.0175781 C 162.7695 8.6271848 162.99219 9.470795 162.99219 10.546875 C 162.99219 11.622962 162.7695 12.469078 162.32422 13.083984 C 161.87895 13.693584 161.26807 13.998047 160.49414 13.998047 C 159.72021 13.998047 159.11129 13.693584 158.66602 13.083984 C 158.22604 12.469078 158.00586 11.622962 158.00586 10.546875 C 158.00586 9.470795 158.22604 8.6271848 158.66602 8.0175781 C 159.11129 7.4026715 159.72021 7.0957031 160.49414 7.0957031 z M 175.37305 7.0957031 C 176.14698 7.0957031 176.75339 7.4026715 177.19336 8.0175781 C 177.63864 8.6271848 177.86133 9.470795 177.86133 10.546875 C 177.86133 11.622962 177.63864 12.469078 177.19336 13.083984 C 176.75339 13.693584 176.14698 13.998047 175.37305 13.998047 C 174.59911 13.998047 173.98824 13.693584 173.54297 13.083984 C 173.103 12.469078 172.88281 11.622962 172.88281 10.546875 C 172.88281 9.470795 173.103 8.6271848 173.54297 8.0175781 C 173.98824 7.4026715 174.59911 7.0957031 175.37305 7.0957031 z M 113.86328 7.1113281 C 114.64252 7.1113281 115.25897 7.422762 115.71484 8.0429688 C 116.17072 8.6578753 116.40039 9.491995 116.40039 10.546875 C 116.40039 11.607062 116.17072 12.445647 115.71484 13.060547 C 115.25897 13.675454 114.64252 13.982422 113.86328 13.982422 C 113.07345 13.982422 112.45002 13.677966 111.99414 13.068359 C 111.54356 12.453459 111.31836 11.612362 111.31836 10.546875 C 111.31836 9.481395 111.54608 8.644763 112.00195 8.0351562 C 112.45783 7.4202497 113.07875 7.1113281 113.86328 7.1113281 z M 136.25391 7.1113281 C 136.97483 7.1113281 137.55361 7.3510383 137.98828 7.828125 C 138.42826 8.305205 138.65346 8.9437073 138.66406 9.7441406 L 133.44727 9.7519531 C 133.52148 8.9144065 133.80333 8.2658675 134.29102 7.8046875 C 134.784 7.3435075 135.43757 7.1113281 136.25391 7.1113281 z M 151.44922 7.1113281 C 152.17014 7.1113281 152.74892 7.3510383 153.18359 7.828125 C 153.62357 8.305205 153.84878 8.9437073 153.85938 9.7441406 L 148.64258 9.7519531 C 148.71678 8.9144065 148.99864 8.2658675 149.48633 7.8046875 C 149.97931 7.3435075 150.63288 7.1113281 151.44922 7.1113281 z M 7.7949219 19.615234 C 6.9229949 19.615234 6.173697 19.777999 5.546875 20.105469 C 4.918919 20.432649 4.6054688 20.828356 4.6054688 21.291016 C 4.6054688 21.755956 4.918919 22.151326 5.546875 22.478516 C 6.173697 22.805696 6.9229949 22.96875 7.7949219 22.96875 C 8.6682679 22.96875 9.4169649 22.805696 10.044922 22.478516 C 10.671744 22.151326 10.986328 21.755956 10.986328 21.291016 C 10.986328 20.828356 10.671744 20.432649 10.044922 20.105469 C 9.4169649 19.777999 8.6682679 19.615234 7.7949219 19.615234 z M 7.7949219 24.644531 C 6.9229949 24.644531 6.173697 24.809529 5.546875 25.136719 C 4.918919 25.463049 4.6054688 25.84501 4.6054688 26.28125 L 4.6054688 41.332031 C 4.6054688 41.795831 4.918919 42.192061 5.546875 42.519531 C 6.173697 42.846711 6.9229949 43.009766 7.7949219 43.009766 C 8.6682679 43.009766 9.4169649 42.846711 10.044922 42.519531 C 10.671744 42.192061 10.986328 41.795831 10.986328 41.332031 L 10.986328 26.28125 C 10.986328 25.81746 10.679879 25.429354 10.066406 25.115234 C 9.4529342 24.802534 8.6946819 24.644531 7.7949219 24.644531 z M 26.117188 24.644531 C 21.863778 24.644531 18.578145 25.424106 16.261719 26.978516 C 14.380119 28.259996 13.439453 29.701897 13.439453 31.310547 L 13.439453 36.302734 C 13.439453 37.965644 14.393302 39.424084 16.302734 40.677734 C 18.619163 42.232144 21.890192 43.009766 26.117188 43.009766 C 30.370881 43.009766 33.657047 42.218679 35.974609 40.636719 C 37.856209 39.383069 38.796875 37.938084 38.796875 36.302734 C 38.796875 35.838944 38.490426 35.442714 37.876953 35.115234 C 37.263197 34.788044 36.520364 34.625 35.648438 34.625 C 34.775375 34.625 34.023306 34.788044 33.396484 35.115234 C 32.768527 35.442714 32.457031 35.838944 32.457031 36.302734 C 32.457031 37.038334 32.129264 37.693055 31.474609 38.265625 C 30.466356 39.193205 28.680138 39.654297 26.117188 39.654297 C 23.554519 39.654297 21.770256 39.193205 20.761719 38.265625 C 20.107065 37.693055 19.779297 37.038334 19.779297 36.302734 L 19.779297 31.310547 C 19.779297 30.573817 20.107065 29.922179 20.761719 29.349609 C 21.770256 28.422299 23.554519 27.958984 26.117188 27.958984 C 28.680138 27.958984 30.466356 28.422299 31.474609 29.349609 C 32.129264 29.922179 32.457031 30.573817 32.457031 31.310547 C 32.457031 31.774067 32.768527 32.170857 33.396484 32.498047 C 34.023306 32.825517 34.775375 32.988281 35.648438 32.988281 C 36.548197 32.988281 37.296361 32.825517 37.896484 32.498047 C 38.495472 32.170857 38.796875 31.774067 38.796875 31.310547 C 38.796875 29.647367 37.840755 28.189187 35.933594 26.935547 C 33.588197 25.408957 30.315213 24.644531 26.117188 24.644531 z M 53.927734 24.644531 C 49.675461 24.644531 46.387875 25.424106 44.070312 26.978516 C 42.188713 28.259996 41.25 29.701897 41.25 31.310547 L 41.25 36.302734 C 41.25 37.965644 42.204984 39.424084 44.113281 40.677734 C 46.430844 42.232144 49.701874 43.009766 53.927734 43.009766 C 58.181428 43.009766 61.466457 42.218679 63.785156 40.636719 C 65.665619 39.383069 66.607422 37.938084 66.607422 36.302734 L 66.607422 31.310547 C 66.607422 29.647367 65.652156 28.189187 63.744141 26.935547 C 61.398744 25.408957 58.126897 24.644531 53.927734 24.644531 z M 81.740234 24.644531 C 77.486544 24.644531 74.200372 25.424106 71.882812 26.978516 C 70.002349 28.259996 69.060547 29.701897 69.060547 31.310547 L 69.060547 41.332031 C 69.060547 41.795831 69.373992 42.192061 70.001953 42.519531 C 70.628772 42.846711 71.376938 43.009766 72.25 43.009766 C 73.149757 43.009766 73.899592 42.846711 74.5 42.519531 C 75.098989 42.192061 75.400391 41.795831 75.400391 41.332031 L 75.400391 31.310547 C 75.400391 30.573817 75.740808 29.922179 76.421875 29.349609 C 77.512497 28.422299 79.286064 27.958984 81.740234 27.958984 C 84.302053 27.958984 86.086314 28.422299 87.095703 29.349609 C 87.750354 29.922179 88.078125 30.573817 88.078125 31.310547 L 88.078125 41.332031 C 88.078125 41.795831 88.392712 42.192061 89.019531 42.519531 C 89.646356 42.846711 90.394515 43.009766 91.267578 43.009766 C 92.167335 43.009766 92.918306 42.846711 93.517578 42.519531 C 94.117702 42.192061 94.416016 41.795831 94.416016 41.332031 L 94.416016 31.310547 C 94.416016 30.573817 94.757249 29.922179 95.439453 29.349609 C 96.530075 28.422299 98.30282 27.958984 100.75586 27.958984 C 103.26428 27.958984 105.06367 28.422299 106.1543 29.349609 C 106.80895 29.922179 107.13672 30.573817 107.13672 31.310547 L 107.13672 41.332031 C 107.13672 41.795831 107.43503 42.192061 108.03516 42.519531 C 108.63414 42.846711 109.38735 43.009766 110.28711 43.009766 C 111.15904 43.009766 111.90833 42.846711 112.53516 42.519531 C 113.16197 42.192061 113.47461 41.795831 113.47461 41.332031 L 113.47461 31.310547 C 113.47461 29.647367 112.52158 28.189187 110.61328 26.935547 C 108.26788 25.408957 104.98172 24.644531 100.75586 24.644531 C 98.629154 24.644531 96.782611 24.835087 95.214844 25.216797 C 93.647368 25.599367 92.330361 26.117124 91.267578 26.771484 C 90.122714 26.062594 88.786349 25.531624 87.259766 25.177734 C 85.733184 24.823854 83.89364 24.644531 81.740234 24.644531 z M 128.60742 24.644531 C 124.35401 24.644531 121.06784 25.424106 118.75 26.978516 C 116.86954 28.259996 115.92969 29.701897 115.92969 31.310547 L 115.92969 36.302734 C 115.92969 38.538214 117.40104 40.267201 120.3457 41.494141 C 122.68996 42.503811 125.44349 43.009766 128.60742 43.009766 C 129.50718 43.009766 130.2573 42.846711 130.85742 42.519531 C 131.45669 42.192061 131.75781 41.795831 131.75781 41.332031 C 131.75781 40.868231 131.45137 40.473674 130.83789 40.146484 C 130.22441 39.819304 129.49395 39.654297 128.64844 39.654297 C 127.17639 39.654297 125.92281 39.478067 124.88672 39.123047 C 123.14145 38.550767 122.26953 37.610614 122.26953 36.302734 L 122.26953 31.310547 C 122.26953 30.573817 122.59676 29.922179 123.25 29.349609 C 124.25854 28.422299 126.04362 27.958984 128.60742 27.958984 C 131.16924 27.958984 132.95712 28.422299 133.9668 29.349609 C 134.62117 29.922179 134.94727 30.573817 134.94727 31.310547 C 134.94727 32.101537 134.62117 32.756248 133.9668 33.273438 C 132.90288 34.174337 131.11499 34.625 128.60742 34.625 C 127.73436 34.625 126.98425 34.788044 126.35742 35.115234 C 125.72947 35.442714 125.41797 35.838944 125.41797 36.302734 C 125.41797 36.766534 125.72947 37.161941 126.35742 37.488281 C 126.98425 37.815471 127.73436 37.978516 128.60742 37.978516 C 132.83328 37.978516 136.11945 37.200894 138.46484 35.646484 C 140.34644 34.391694 141.28516 32.946767 141.28516 31.310547 C 141.28516 29.647367 140.33212 28.189187 138.42383 26.935547 C 136.07843 25.408957 132.80573 24.644531 128.60742 24.644531 z M 156.41797 24.644531 C 152.16456 24.644531 148.8792 25.424106 146.5625 26.978516 C 144.6809 28.259996 143.74023 29.701897 143.74023 31.310547 L 143.74023 41.332031 C 143.74023 41.795831 144.0405 42.192061 144.64062 42.519531 C 145.2396 42.846711 145.98892 43.009766 146.88867 43.009766 C 147.76059 43.009766 148.51071 42.846711 149.13867 42.519531 C 149.7655 42.192061 150.08008 41.795831 150.08008 41.332031 L 150.08008 31.310547 C 150.08008 30.573817 150.4059 29.922179 151.06055 29.349609 C 152.06908 28.422299 153.8553 27.958984 156.41797 27.958984 L 165.94727 27.958984 C 166.84702 27.958984 167.59715 27.794277 168.19727 27.466797 C 168.79626 27.139627 169.09766 26.74476 169.09766 26.28125 C 169.09766 25.81746 168.78925 25.429354 168.17578 25.115234 C 167.56231 24.802534 166.81948 24.644531 165.94727 24.644531 L 156.41797 24.644531 z M 177.40039 24.644531 C 176.52704 24.644531 175.77721 24.809529 175.15039 25.136719 C 174.52243 25.463049 174.20898 25.84501 174.20898 26.28125 C 174.20898 26.74476 174.52243 27.139627 175.15039 27.466797 C 175.77721 27.794277 176.52704 27.958984 177.40039 27.958984 C 179.96306 27.958984 181.74927 28.422299 182.75781 29.349609 C 183.41247 29.922179 183.73828 30.573817 183.73828 31.310547 L 183.73828 36.302734 C 183.73828 37.638454 182.86523 38.591482 181.12109 39.164062 C 180.08387 39.491262 178.82975 39.654297 177.35742 39.654297 C 175.93963 39.654297 174.71297 39.478067 173.67773 39.123047 C 171.93161 38.550767 171.05859 37.610614 171.05859 36.302734 C 171.05859 35.266364 171.62011 34.455911 172.73828 33.869141 C 173.85559 33.283221 175.41001 32.988281 177.40039 32.988281 C 178.30016 32.988281 179.04832 32.825517 179.64844 32.498047 C 180.24771 32.170857 180.54883 31.774067 180.54883 31.310547 C 180.54883 30.846757 180.24237 30.454123 179.62891 30.126953 C 179.01544 29.799483 178.27232 29.634766 177.40039 29.634766 C 174.23732 29.634766 171.48293 30.140187 169.13867 31.148438 C 166.19315 32.374537 164.7207 34.093944 164.7207 36.302734 C 164.7207 38.538214 165.94119 40.354811 168.88672 41.582031 C 171.23098 42.591421 174.19826 43.337891 177.36133 43.337891 C 180.52413 43.337891 183.64094 42.591421 185.98633 41.582031 C 188.93072 40.354811 190.07813 38.538214 190.07812 36.302734 L 190.07812 31.310547 C 190.07812 29.647367 189.12313 28.189187 187.21484 26.935547 C 184.87057 25.408957 181.59842 24.644531 177.40039 24.644531 z M 53.927734 27.958984 C 56.490686 27.958984 58.277719 28.422299 59.287109 29.349609 C 59.940627 29.922179 60.267578 30.573817 60.267578 31.310547 L 60.267578 36.302734 C 60.267578 37.038334 59.940627 37.693055 59.287109 38.265625 C 58.277719 39.193205 56.490686 39.654297 53.927734 39.654297 C 51.365066 39.654297 49.57885 39.193205 48.570312 38.265625 C 47.915658 37.693055 47.589844 37.038334 47.589844 36.302734 L 47.589844 31.310547 C 47.589844 30.573817 47.929124 29.922179 48.611328 29.349609 C 49.701946 28.422299 51.473844 27.958984 53.927734 27.958984 z " />
</svg>